<?xml version="1.0" standalone="no"?>
<!DOCTYPE svg PUBLIC "-//W3C//DTD SVG 20010904//EN"
    "http://www.w3.org/TR/2001/REC-SVG-20010904/DTD/svg10.dtd">
<svg version="1.0" xmlns="http://www.w3.org/2000/svg"
    width="260.000000pt" height="244.000000pt" viewBox="0 0 260.000000 244.000000"
    preserveAspectRatio="xMidYMid meet">
    <metadata>
        Created by potrace 1.10, written by Peter Selinger 2001-2011
    </metadata>
    <g transform="translate(0.000000,244.000000) scale(0.050000,-0.050000)"
        fill="#e51599" stroke="none">
        <path d="M1820 3414 c-309 -90 -529 -329 -578 -628 -98 -612 537 -1093 1091
-825 l87 43 0 197 c0 184 3 199 45 221 65 36 91 66 98 118 8 53 57 80 57 32 0
-18 36 -69 80 -114 l80 -83 0 -177 c0 -98 -7 -177 -15 -176 -66 11 -220 -101
-195 -141 6 -10 2 -23 -7 -29 -10 -7 -25 20 -32 58 -7 39 -21 70 -30 70 -10 0
-31 5 -47 11 -19 7 -33 -5 -41 -35 -65 -259 -365 -404 -592 -286 -96 49 -138
37 -257 -78 l-112 -107 96 -68 c475 -335 1212 -23 1212 514 0 81 -1 80 96 31
507 -257 1094 117 1094 698 0 681 -764 1023 -1280 574 l-80 -69 -96 86 c-167
151 -466 223 -674 163z m1095 -266 c0 -71 -69 -75 -93 -6 -19 56 -18 58 36 54
44 -3 57 -14 57 -48z m-435 -74 c0 -14 17 -25 39 -25 21 0 34 6 30 13 -24 38
84 34 116 -4 55 -66 90 -203 56 -214 -16 -6 -49 -32 -74 -59 -49 -53 -87 -46
-87 17 0 22 -9 51 -20 64 -112 133 -156 234 -100 234 22 0 40 -12 40 -26z
m-280 -54 c293 -149 278 -578 -25 -729 -146 -72 -267 -63 -405 32 -424 290
-29 931 430 697z m1112 31 c400 -119 372 -700 -38 -792 -388 -87 -651 383
-381 681 112 125 250 161 419 111z m-221 -989 c-37 -60 -109 2 -82 72 11 30
17 29 54 -8 23 -23 36 -52 28 -64z m-904 53 c41 -42 -29 -98 -78 -62 -20 15
-26 27 -13 27 13 0 23 7 22 15 -8 50 29 61 69 20z"/>
    </g>
</svg>
